<svg width="25" height="24" viewBox="0 0 25 24" fill="none" xmlns="http://www.w3.org/2000/svg">
<path d="M5.74994 3.7475H19.2499V2.6225C19.2499 2.32413 19.1314 2.03798 18.9204 1.827C18.7095 1.61602 18.4233 1.4975 18.1249 1.4975H3.59369C3.171 1.4975 2.76562 1.66541 2.46674 1.9643C2.16785 2.26318 1.99994 2.66856 1.99994 3.09125V17.6225C1.99994 17.9209 2.11847 18.207 2.32944 18.418C2.54042 18.629 2.82657 18.7475 3.12494 18.7475H4.24994V5.2475C4.24994 4.84967 4.40797 4.46814 4.68928 4.18684C4.97058 3.90553 5.35212 3.7475 5.74994 3.7475Z" fill="#B3B3B3"/>
<path d="M21.8751 5.2475H6.87506C6.57669 5.2475 6.29054 5.36602 6.07957 5.577C5.86859 5.78798 5.75006 6.07413 5.75006 6.3725V21.3725C5.75006 21.6709 5.86859 21.957 6.07957 22.168C6.29054 22.379 6.57669 22.4975 6.87506 22.4975H21.8751C22.1734 22.4975 22.4596 22.379 22.6706 22.168C22.8815 21.957 23.0001 21.6709 23.0001 21.3725V6.3725C23.0001 6.07413 22.8815 5.78798 22.6706 5.577C22.4596 5.36602 22.1734 5.2475 21.8751 5.2475ZM18.8751 14.6225H15.1251V18.3725H13.6251V14.6225H9.87506V13.1225H13.6251V9.3725H15.1251V13.1225H18.8751V14.6225Z" fill="#666666"/>
</svg>
