<svg width="25" height="24" viewBox="0 0 25 24" fill="none" xmlns="http://www.w3.org/2000/svg">
<path d="M12.7614 4.74709C12.6916 4.68033 12.5988 4.64307 12.5022 4.64307C12.4056 4.64307 12.3128 4.68033 12.243 4.74709L3.61328 12.991C3.57663 13.0261 3.54748 13.0682 3.52757 13.1148C3.50767 13.1615 3.49744 13.2117 3.4975 13.2624L3.49609 20.9996C3.49609 21.3974 3.65413 21.7789 3.93543 22.0602C4.21674 22.3416 4.59827 22.4996 4.99609 22.4996H9.50078C9.6997 22.4996 9.89046 22.4206 10.0311 22.2799C10.1718 22.1393 10.2508 21.9485 10.2508 21.7496V15.3746C10.2508 15.2751 10.2903 15.1797 10.3606 15.1094C10.4309 15.0391 10.5263 14.9996 10.6258 14.9996H14.3758C14.4752 14.9996 14.5706 15.0391 14.6409 15.1094C14.7113 15.1797 14.7508 15.2751 14.7508 15.3746V21.7496C14.7508 21.9485 14.8298 22.1393 14.9705 22.2799C15.1111 22.4206 15.3019 22.4996 15.5008 22.4996H20.0036C20.4014 22.4996 20.783 22.3416 21.0643 22.0602C21.3456 21.7789 21.5036 21.3974 21.5036 20.9996V13.2624C21.5037 13.2117 21.4934 13.1615 21.4735 13.1148C21.4536 13.0682 21.4245 13.0261 21.3878 12.991L12.7614 4.74709Z" fill="#008C8C"/>
<path d="M23.5114 11.446L20.0052 8.09162V3.00147C20.0052 2.80255 19.9262 2.61179 19.7855 2.47113C19.6449 2.33048 19.4541 2.25147 19.2552 2.25147H17.0052C16.8063 2.25147 16.6155 2.33048 16.4748 2.47113C16.3342 2.61179 16.2552 2.80255 16.2552 3.00147V4.50147L13.5402 1.90553C13.2861 1.64865 12.9083 1.50146 12.5 1.50146C12.0931 1.50146 11.7163 1.64865 11.4622 1.906L1.49189 11.4451C1.20033 11.7263 1.16377 12.189 1.42908 12.4937C1.4957 12.5706 1.57728 12.6331 1.66885 12.6775C1.76041 12.7219 1.86005 12.7471 1.96169 12.7518C2.06334 12.7564 2.16487 12.7404 2.2601 12.7045C2.35533 12.6687 2.44228 12.6138 2.51564 12.5433L12.2422 3.24897C12.312 3.18221 12.4049 3.14495 12.5014 3.14495C12.598 3.14495 12.6909 3.18221 12.7606 3.24897L22.4881 12.5433C22.6314 12.6808 22.8234 12.7557 23.0219 12.7519C23.2204 12.748 23.4092 12.6656 23.5471 12.5227C23.8349 12.2246 23.811 11.7324 23.5114 11.446Z" fill="#008C8C"/>
</svg>
