<svg width="25" height="24" viewBox="0 0 25 24" fill="none" xmlns="http://www.w3.org/2000/svg">
<path d="M22.9998 21.002H22.4373C22.3876 21.002 22.3399 20.9822 22.3047 20.947C22.2696 20.9119 22.2498 20.8642 22.2498 20.8145V12.8227C22.2503 12.7929 22.2436 12.7634 22.2303 12.7367C22.217 12.71 22.1976 12.6868 22.1735 12.6691C22.1495 12.6514 22.1216 12.6397 22.0922 12.6349C22.0627 12.6302 22.0326 12.6325 22.0042 12.6418C21.5741 12.777 21.1274 12.8524 20.6767 12.8659C20.6214 12.8659 20.5689 12.8682 20.5173 12.8682C19.6505 12.8702 18.7976 12.6501 18.04 12.2288C17.9826 12.1969 17.9181 12.1802 17.8525 12.1802C17.7869 12.1802 17.7223 12.1969 17.665 12.2288C16.9076 12.6501 16.0548 12.8702 15.1881 12.8682C14.3263 12.8694 13.4789 12.6467 12.729 12.2218C12.6712 12.1891 12.6059 12.1718 12.5394 12.1718C12.473 12.1718 12.4077 12.1891 12.3498 12.2218C11.5887 12.6483 10.7304 12.8711 9.85795 12.8687C8.99031 12.8692 8.1376 12.643 7.38435 12.2124C7.32607 12.1793 7.26016 12.1618 7.1931 12.1618C7.12605 12.1618 7.06014 12.1793 7.00185 12.2124C6.24861 12.643 5.39589 12.8692 4.52826 12.8687C4.47717 12.8687 4.4256 12.8687 4.37029 12.8663H4.36748C3.90097 12.8523 3.43884 12.772 2.99498 12.6277C2.96687 12.6187 2.93701 12.6163 2.90784 12.621C2.87867 12.6256 2.85101 12.6371 2.82711 12.6545C2.80321 12.6718 2.78375 12.6946 2.77032 12.7209C2.75689 12.7472 2.74987 12.7763 2.74982 12.8059V20.8145C2.74982 20.8642 2.73007 20.9119 2.6949 20.947C2.65974 20.9822 2.61205 21.002 2.56232 21.002H2.02326C1.61826 21.002 1.26857 21.3132 1.25076 21.7182C1.2462 21.8194 1.2622 21.9205 1.29778 22.0154C1.33337 22.1102 1.3878 22.1969 1.45781 22.2702C1.52781 22.3434 1.61193 22.4017 1.70509 22.4415C1.79824 22.4814 1.8985 22.5019 1.99982 22.502H22.9764C23.3814 22.502 23.7311 22.1907 23.7489 21.7857C23.7534 21.6845 23.7375 21.5834 23.7019 21.4885C23.6663 21.3937 23.6118 21.307 23.5418 21.2338C23.4718 21.1605 23.3877 21.1022 23.2946 21.0624C23.2014 21.0225 23.1011 21.002 22.9998 21.002ZM10.9998 17.8145C10.9998 17.8642 10.9801 17.9119 10.9449 17.947C10.9097 17.9822 10.8621 18.002 10.8123 18.002H6.68732C6.6376 18.002 6.5899 17.9822 6.55474 17.947C6.51958 17.9119 6.49982 17.8642 6.49982 17.8145V14.8145C6.49982 14.6653 6.55909 14.5222 6.66458 14.4167C6.77007 14.3112 6.91314 14.252 7.06232 14.252H10.4373C10.5865 14.252 10.7296 14.3112 10.8351 14.4167C10.9406 14.5222 10.9998 14.6653 10.9998 14.8145V17.8145ZM18.3123 21.002H14.9373C14.8876 21.002 14.8399 20.9822 14.8047 20.947C14.7696 20.9119 14.7498 20.8642 14.7498 20.8145V14.8145C14.7498 14.6653 14.8091 14.5222 14.9146 14.4167C15.0201 14.3112 15.1631 14.252 15.3123 14.252H17.9373C18.0865 14.252 18.2296 14.3112 18.3351 14.4167C18.4406 14.5222 18.4998 14.6653 18.4998 14.8145V20.8145C18.4998 20.8642 18.4801 20.9119 18.4449 20.947C18.4097 20.9822 18.3621 21.002 18.3123 21.002ZM23.589 7.98383L21.5772 3.36711C21.0503 2.23414 19.847 1.50195 18.5115 1.50195H6.48576C5.15029 1.50195 3.94701 2.23414 3.42014 3.36711L1.40826 7.98383C0.986385 8.89367 1.54373 9.82789 1.5442 9.82836L1.55732 9.84945C1.58029 9.88602 1.62107 9.9432 1.64592 9.97977C1.64826 9.98258 1.65013 9.98586 1.65248 9.98914L1.88685 10.2727C1.89562 10.2834 1.90501 10.2936 1.91498 10.3032L2.14935 10.5296L2.16904 10.5465C2.30668 10.6645 2.45391 10.7708 2.6092 10.8643V10.8666C3.11934 11.1757 3.70055 11.3479 4.2967 11.3668H4.41248C5.31448 11.3685 6.18362 11.0283 6.84482 10.4148L6.86029 10.4002C6.92935 10.3352 7.02065 10.2989 7.11553 10.2989C7.21041 10.2989 7.30171 10.3352 7.37076 10.4002L7.38623 10.4148C8.05448 11.0273 8.92803 11.367 9.83451 11.367C10.741 11.367 11.6145 11.0273 12.2828 10.4148C12.3521 10.3506 12.4431 10.3149 12.5376 10.3149C12.632 10.3149 12.723 10.3506 12.7923 10.4148C13.4586 11.0253 14.3289 11.3649 15.2327 11.3669C16.1364 11.3689 17.0082 11.0332 17.6772 10.4255C17.7455 10.3623 17.8351 10.3272 17.9282 10.3272C18.0213 10.3272 18.1109 10.3623 18.1792 10.4255C18.8489 11.0369 19.7245 11.373 20.6312 11.3668H20.7479C21.3291 11.3451 21.8946 11.1722 22.3886 10.8652C22.4331 10.8385 22.4758 10.8104 22.5189 10.7823C22.852 10.5577 23.142 10.2749 23.3748 9.94742L23.4564 9.82414C23.4645 9.81164 23.472 9.79852 23.4789 9.78477C23.5567 9.62633 23.9739 8.81164 23.589 7.98383Z" fill="#B3B3B3"/>
</svg>
