<svg width="25" height="24" viewBox="0 0 25 24" fill="none" xmlns="http://www.w3.org/2000/svg">
<path d="M23.1789 1.52317C23.0014 1.48096 22.8147 1.50374 22.6525 1.58739L21.4999 2.16301L20.3374 1.58176C20.2332 1.5297 20.1184 1.50259 20.002 1.50259C19.8856 1.50259 19.7707 1.5297 19.6666 1.58176L18.4896 2.16348L17.328 1.58176C17.2236 1.52932 17.1083 1.502 16.9914 1.502C16.8746 1.502 16.7593 1.52932 16.6549 1.58176L15.4999 2.1616L14.3538 1.58317C14.2496 1.53036 14.1346 1.50261 14.0178 1.50212C13.901 1.50163 13.7857 1.52842 13.6811 1.58035L12.4999 2.16395L11.3374 1.58129C11.2331 1.52925 11.1181 1.50216 11.0015 1.50216C10.8849 1.50216 10.77 1.52925 10.6657 1.58129L9.49988 2.16301L8.3355 1.58129C8.1854 1.50605 8.01438 1.48335 7.84984 1.51684C7.6853 1.55032 7.53676 1.63805 7.428 1.76598C7.31078 1.9057 7.24757 2.08283 7.24988 2.2652V13.5021L7.25222 13.5044H16.2499C16.6477 13.5044 17.0292 13.6625 17.3105 13.9438C17.5918 14.2251 17.7499 14.6066 17.7499 15.0044V19.8771C17.7499 21.3269 19.3 22.5021 20.7499 22.5021H21.3124C21.9588 22.5021 22.5788 22.2453 23.036 21.7881C23.4931 21.331 23.7499 20.711 23.7499 20.0646V2.25207C23.75 2.08421 23.6938 1.92115 23.5903 1.789C23.4868 1.65685 23.342 1.56324 23.1789 1.52317ZM19.9999 11.2521H14.0233C13.6183 11.2521 13.2686 10.9408 13.2508 10.5358C13.2463 10.4346 13.2623 10.3335 13.2978 10.2387C13.3334 10.1438 13.3879 10.0571 13.4579 9.98388C13.5279 9.91063 13.612 9.85233 13.7051 9.81249C13.7983 9.77265 13.8986 9.7521 13.9999 9.75207H19.9764C20.3814 9.75207 20.7311 10.0633 20.7489 10.4683C20.7535 10.5695 20.7375 10.6706 20.7019 10.7655C20.6663 10.8604 20.6119 10.947 20.5419 11.0203C20.4719 11.0935 20.3878 11.1518 20.2946 11.1917C20.2015 11.2315 20.1012 11.2521 19.9999 11.2521ZM19.9999 7.50207H11.0233C10.6183 7.50207 10.2686 7.19082 10.2508 6.78582C10.2463 6.68461 10.2623 6.58352 10.2978 6.48866C10.3334 6.39379 10.3879 6.30712 10.4579 6.23388C10.5279 6.16063 10.612 6.10233 10.7051 6.06249C10.7983 6.02265 10.8986 6.0021 10.9999 6.00207H19.9764C20.3814 6.00207 20.7311 6.31332 20.7489 6.71832C20.7535 6.81954 20.7375 6.92063 20.7019 7.01549C20.6663 7.11036 20.6119 7.19703 20.5419 7.27027C20.4719 7.34352 20.3878 7.40182 20.2946 7.44166C20.2015 7.4815 20.1012 7.50205 19.9999 7.50207Z" fill="#B3B3B3"/>
<path d="M16.25 19.8759V15.7509C16.25 15.5519 16.171 15.3612 16.0303 15.2205C15.8897 15.0799 15.6989 15.0009 15.5 15.0009H2.75C2.35215 15.0021 1.97098 15.1608 1.68988 15.4424C1.40878 15.7239 1.25062 16.1053 1.25 16.5032C1.25 18.8727 1.52094 19.858 1.92781 20.608C2.61828 21.8816 3.86844 22.5009 5.75 22.5009H17.2663C17.3032 22.5009 17.3394 22.49 17.3702 22.4695C17.401 22.449 17.4251 22.4199 17.4394 22.3857C17.4537 22.3516 17.4575 22.314 17.4505 22.2777C17.4435 22.2414 17.4258 22.208 17.3998 22.1816C16.9564 21.7368 16.25 21.1415 16.25 19.8759Z" fill="#666666"/>
</svg>
