<svg width="131" height="131" viewBox="0 0 131 131" fill="none" xmlns="http://www.w3.org/2000/svg">
<path d="M65.5 0.90332C29.8834 0.90332 0.90625 29.8804 0.90625 65.4971C0.90625 101.114 29.8834 130.091 65.5 130.091C101.117 130.091 130.094 101.114 130.094 65.4971C130.094 29.8804 101.117 0.90332 65.5 0.90332ZM99.1167 43.8488L57.3792 93.5363C56.9214 94.0817 56.3517 94.5222 55.7087 94.8281C55.0658 95.1341 54.3646 95.2983 53.6526 95.3096H53.5688C52.8723 95.3093 52.1837 95.1627 51.5476 94.8791C50.9115 94.5956 50.3421 94.1815 49.8764 93.6637L31.9889 73.7887C31.5346 73.3068 31.1812 72.7391 30.9495 72.1187C30.7178 71.4984 30.6124 70.838 30.6396 70.1763C30.6667 69.5147 30.8259 68.8651 31.1077 68.2658C31.3894 67.6666 31.7882 67.1297 32.2804 66.6867C32.7726 66.2437 33.3485 65.9036 33.974 65.6864C34.5996 65.4691 35.2622 65.3791 35.9231 65.4216C36.5839 65.4641 37.2296 65.6383 37.8222 65.9339C38.4148 66.2295 38.9423 66.6406 39.3737 67.143L53.4384 82.7697L91.5083 37.4578C92.3622 36.4705 93.5704 35.8589 94.8717 35.7552C96.1729 35.6515 97.4627 36.0641 98.4622 36.9037C99.4617 37.7433 100.091 38.9425 100.213 40.2421C100.336 41.5417 99.9418 42.8373 99.1167 43.8488Z" fill="#008C8C"/>
</svg>
