<svg width="24" height="24" viewBox="0 0 24 24" fill="none" xmlns="http://www.w3.org/2000/svg">
<path d="M9.6 18.2857C10.92 18.2857 12 17.2571 12 16C12 14.7429 10.92 13.7143 9.6 13.7143C8.28 13.7143 7.2 14.7429 7.2 16C7.2 17.2571 8.28 18.2857 9.6 18.2857ZM16.8 8C18.12 8 19.2 9.02857 19.2 10.2857V21.7143C19.2 22.9714 18.12 24 16.8 24H2.4C1.08 24 0 22.9714 0 21.7143V10.2857C0 9.02857 1.08 8 2.4 8H3.6V5.71429C3.6 2.51429 6.24 0 9.6 0C12.96 0 15.6 2.51429 15.6 5.71429V8H16.8ZM9.6 2.28571C7.56 2.28571 6 3.77143 6 5.71429V8H13.2V5.71429C13.2 3.77143 11.64 2.28571 9.6 2.28571ZM24 13.7143H21.6V6.85714H24V13.7143ZM24 18.2857H21.6V16H24V18.2857Z" fill="#008C8C"/>
</svg>
