<svg width="24" height="24" viewBox="0 0 24 24" fill="none" xmlns="http://www.w3.org/2000/svg">
<path d="M1.26316 24C0.928148 24 0.606859 23.8736 0.369971 23.6485C0.133083 23.4235 0 23.1183 0 22.8V1.2C0 0.88174 0.133083 0.576515 0.369971 0.351472C0.606859 0.126428 0.928148 0 1.26316 0H18.9474C19.2824 0 19.6037 0.126428 19.8406 0.351472C20.0774 0.576515 20.2105 0.88174 20.2105 1.2V4.8H17.6842V2.4H2.52632V21.6H17.6842V19.2H20.2105V22.8C20.2105 23.1183 20.0774 23.4235 19.8406 23.6485C19.6037 23.8736 19.2824 24 18.9474 24H1.26316ZM17.6842 16.8V13.2H8.8421V10.8H17.6842V7.2L24 12L17.6842 16.8Z" fill="#008C8C"/>
</svg>
