<svg width="24" height="24" viewBox="0 0 24 24" fill="none" xmlns="http://www.w3.org/2000/svg">
<path d="M20.4 2.66667H1.2V0H20.4V2.66667ZM13.2 16.1733L9.6 20.1733V21.3333H1.2V13.3333H0V10.6667L1.2 4H20.4L21.132 8.09333C20.592 8.22667 20.076 8.53333 19.668 8.98667L15.756 13.3333H13.2V16.1733ZM10.8 13.3333H3.6V18.6667H10.8V13.3333ZM23.82 12.6267L22.236 10.8667C21.996 10.6 21.6 10.6 21.372 10.8667L20.196 12.1733L22.644 14.8933L23.82 13.5867C24.06 13.3333 24.06 12.8933 23.82 12.6267ZM12 21.28V24H14.448L21.804 15.84L19.356 13.1067L12 21.28Z" fill="#008C8C"/>
</svg>
